Coordinates
version=1
nRows=25
nColumns=23
inDegrees=yes

Units are S.I. units (second, meters, Newtons, ...)
If the header above contains a line with 'inDegrees', this indicates whether rotational values are in degrees (yes) or radians (no).

endheader
time	pelvis_tilt	pelvis_list	pelvis_rotation	pelvis_tx	pelvis_ty	pelvis_tz	hip_flexion_r	hip_adduction_r	hip_rotation_r	knee_angle_r	knee_angle_r_beta	ankle_angle_r	subtalar_angle_r	mtp_angle_r	hip_flexion_l	hip_adduction_l	hip_rotation_l	knee_angle_l	knee_angle_l_beta	ankle_angle_l	subtalar_angle_l	mtp_angle_l
     22.50000000	     -7.65527987	      0.20108031	     -1.49466776	      2.19258664	      1.06874607	      1.02674405	     32.65747644	     -3.59116459	    -11.10305564	     44.21037465	      0.77161660	      7.30272660	      2.04827844	      0.00000000	     -4.09127024	     -0.84223745	    -10.55659159	     27.19660480	      0.47467030	     -2.81280971	      4.25287163	      0.00000000
     22.50666667	     -8.25081673	      0.12623534	     -1.82344157	      2.19418678	      1.07156454	      1.02782803	     32.84192331	     -2.96020470	    -11.50572853	     40.62046989	      0.70896094	      7.18118052	      2.64018049	      0.00000000	     -4.30603170	     -1.00505973	    -10.69468425	     26.77449980	      0.46730318	     -5.41009644	      4.00158770	      0.00000000
     22.51333333	     -8.80110477	      0.06334375	     -2.12327884	      2.19572012	      1.07408992	      1.02892017	     32.92645498	     -2.29816814	    -11.83263882	     36.99248864	      0.64564073	      6.93054768	      3.29390136	      0.00000000	     -4.46785742	     -1.17518968	    -10.77641405	     26.53669436	      0.46315269	     -7.81290511	      3.74118142	      0.00000000
     22.52000000	     -9.30303941	      0.00758607	     -2.41756122	      2.19719082	      1.07631154	      1.03008486	     32.91534534	     -1.60100554	    -12.07409224	     33.35572589	      0.58216724	      6.55957710	      3.90346295	      0.00000000	     -4.60093641	     -1.34062327	    -10.78527123	     26.44110339	      0.46148431	     -9.98015357	      3.38111518	      0.00000000
     22.52666667	     -9.78231768	     -0.04031552	     -2.68986228	      2.19870046	      1.07809757	      1.03128262	     32.83931471	     -0.85099843	    -12.09123181	     29.74969445	      0.51923012	      6.06996014	      4.40469130	      0.00000000	     -4.66810890	     -1.52370880	    -10.77696408	     26.53863402	      0.46318654	    -11.91830413	      2.93392067	      0.00000000
     22.53333333	    -10.22664338	     -0.12088657	     -2.90983389	      2.20018133	      1.07942300	      1.03244800	     32.70908350	     -0.10864296	    -12.13451265	     26.27729416	      0.45862530	      5.55799885	      5.11704273	      0.00000000	     -4.65162322	     -1.80289647	    -10.84485009	     26.89732247	      0.46944684	    -13.49350906	      2.49405048	      0.00000000
     22.54000000	    -10.60470329	     -0.16906485	     -3.10484931	      2.20158987	      1.08025568	      1.03356894	     32.53342065	      0.61204521	    -11.92158827	     23.01243172	      0.40164270	      5.06504573	      5.78854206	      0.00000000	     -4.60101288	     -2.07118660	    -10.92043455	     27.47404201	      0.47951249	    -14.77306913	      1.95370887	      0.00000000
     22.54666667	    -10.82154625	     -0.27842737	     -3.31746636	      2.20305628	      1.08087331	      1.03469282	     32.05465100	      1.54243260	    -10.87949261	     19.65278907	      0.34300588	      4.31617414	      5.27321355	      0.00000000	     -4.68917854	     -2.38782665	    -10.98733470	     28.15017220	      0.49131319	    -15.72160259	      1.27291325	      0.00000000
     22.55333333	    -10.99183675	     -0.39850643	     -3.41257791	      2.20456106	      1.08086176	      1.03563974	     31.66351475	      2.20370104	    -10.46677515	     16.89134887	      0.29480965	      3.85659490	      5.86185435	      0.00000000	     -4.70075597	     -2.78172813	    -11.07076117	     29.11354031	      0.50812714	    -16.27128116	      0.50028414	      0.00000000
     22.56000000	    -11.04589784	     -0.52191446	     -3.57438924	      2.20596350	      1.08049828	      1.03654120	     31.07873262	      2.97530318	     -9.16321222	     14.19782814	      0.24779885	      3.18308523	      5.26207313	      0.00000000	     -4.78312984	     -3.16624269	    -11.22448035	     30.21092886	      0.52728018	    -16.51013454	     -0.39078501	      0.00000000
     22.56666667	    -11.14142192	     -0.54897552	     -3.75621806	      2.20725931	      1.07937255	      1.03745385	     30.90562385	      3.39536124	     -8.73560155	     12.57170983	      0.21941773	      3.21222299	      6.14141278	      0.00000000	     -4.72249987	     -3.47705752	    -11.40392696	     31.52654880	      0.55024208	    -16.38070363	     -1.36641516	      0.00000000
     22.57333333	    -10.82955007	     -0.81866529	     -3.78910844	      2.20870674	      1.07843903	      1.03807078	     30.02884564	      4.01845893	     -7.93570545	     10.69888326	      0.18673074	      2.44012219	      5.65874965	      0.00000000	     -5.07191830	     -4.03273711	    -11.46676743	     32.91055821	      0.57439760	    -16.09077722	     -2.44857554	      0.00000000
     22.58000000	    -10.70003949	     -0.92531463	     -3.99818750	      2.20979291	      1.07656069	      1.03883837	     29.83820277	      4.39148422	     -7.58576760	     10.08540777	      0.17602357	      2.37275892	      5.99361994	      0.00000000	     -5.12514774	     -4.42880135	    -11.65130565	     34.51614004	      0.60242029	    -15.47232382	     -3.57759893	      0.00000000
     22.58666667	    -10.42339743	     -1.12238654	     -4.14390057	      2.21082839	      1.07450669	      1.03952159	     29.50359781	      4.77109960	     -7.46408714	      9.78889772	      0.17084850	      2.09218683	      5.98237413	      0.00000000	     -5.26413953	     -4.92298364	    -11.74654124	     36.23824868	      0.63247675	    -14.79241050	     -4.70521272	      0.00000000
     22.59333333	    -10.05407731	     -1.37634832	     -4.28221558	      2.21182239	      1.07210857	      1.04012036	     29.15676621	      5.15773264	     -7.40788114	      9.96323862	      0.17389132	      1.73204646	      5.65025186	      0.00000000	     -5.43972887	     -5.46494536	    -11.77116055	     38.08112821	      0.66464107	    -14.07906775	     -5.80707408	      0.00000000
     22.60000000	     -9.56402005	     -1.62397105	     -4.48346160	      2.21264984	      1.06945366	      1.04076295	     28.84505219	      5.50328976	     -7.45734264	     10.73656542	      0.18738842	      1.35700466	      5.09988934	      0.00000000	     -5.69341669	     -6.00390080	    -11.87142709	     39.99939236	      0.69812110	    -13.33717409	     -6.92326583	      0.00000000
     22.60666667	     -9.13292581	     -1.94301874	     -4.67326004	      2.21324476	      1.06624577	      1.04129007	     28.77153024	      5.85386376	     -7.67383818	     12.12467702	      0.21161553	      1.06175668	      4.19479004	      0.00000000	     -5.76291959	     -6.60157652	    -11.82701966	     42.11661831	      0.73507366	    -12.60055289	     -7.99170735	      0.00000000
     22.61333333	     -8.82607507	     -2.01777321	     -4.88999116	      2.21347066	      1.06242204	      1.04179389	     29.14131824	      5.85319457	     -8.24758958	     14.34842557	      0.25042727	      1.10026314	      3.65697260	      0.00000000	     -5.55919904	     -6.96516242	    -11.78249461	     44.37296879	      0.77445440	    -11.95274637	     -9.01765111	      0.00000000
     22.62000000	     -8.37315205	     -2.17673420	     -5.15021600	      2.21359913	      1.05841044	      1.04223259	     29.37210607	      5.94159292	     -8.54385471	     16.84151954	      0.29393997	      1.09220834	      2.46322078	      0.00000000	     -5.46563526	     -7.39056091	    -11.75162585	     46.68611263	      0.81482638	    -11.35699130	     -9.97823168	      0.00000000
     22.62666667	     -7.66546204	     -2.46263522	     -5.38625579	      2.21364436	      1.05442325	      1.04256303	     29.32409217	      6.09003938	     -8.87118197	     19.54486315	      0.34112221	      1.25093973	      1.11235545	      0.00000000	     -5.59849052	     -7.94659536	    -11.74118811	     49.03798140	      0.85587423	    -10.89356899	    -10.91055876	      0.00000000
     22.63333333	     -7.42479359	     -2.37453108	     -5.68174089	      2.21316566	      1.04937605	      1.04280766	     30.06336104	      5.85935130	     -9.05212711	     22.90755724	      0.39981230	      1.98709882	      0.02318681	      0.00000000	     -5.01780697	     -8.06763769	    -11.54000054	     51.58032292	      0.90024646	    -10.39369514	    -11.73929556	      0.00000000
     22.64000000	     -6.89701765	     -2.46613200	     -5.93736616	      2.21266540	      1.04457663	      1.04294884	     30.37028724	      5.75779292	     -9.24520177	     26.18824070	      0.45707103	      2.94540729	     -1.02560324	      0.00000000	     -4.70889314	     -8.38845998	    -11.39527299	     54.12704804	      0.94469520	     -9.98695095	    -12.55491737	      0.00000000
     22.64666667	     -6.37352882	     -2.57988972	     -6.21914163	      2.21189156	      1.03967282	      1.04306905	     30.61450616	      5.74565797	     -9.14462515	     29.39625716	      0.51306148	      4.15129078	     -2.17296624	      0.00000000	     -4.30790207	     -8.72213334	    -11.24777372	     56.72157617	      0.98997826	     -9.54101179	    -13.16203125	      0.00000000
     22.65333333	     -5.79004527	     -2.80880909	     -6.47922177	      2.21095672	      1.03492174	      1.04312484	     30.65459363	      5.88565972	     -8.90744031	     32.39637878	      0.56542348	      5.55682374	     -3.26460956	      0.00000000	     -3.89715750	     -9.16918865	    -11.06760225	     59.32952827	      1.03549561	     -9.08236867	    -13.66519035	      0.00000000
     22.66000000	     -5.50339674	     -2.90840595	     -6.79114878	      2.20975219	      1.02983603	      1.04320012	     30.96841057	      5.93598370	     -8.60800677	     35.32719809	      0.61657592	      7.12329484	     -4.07676091	      0.00000000	     -3.04510265	     -9.51028571	    -10.89806405	     61.99693084	      1.08205057	     -8.47686936	    -13.95063643	      0.00000000
